HIERARCHY
ROOT Hips
{
	OFFSET -3.958830 18.904000 13.208200
	CHANNELS 6 Xposition Yposition Zposition Zrotation Yrotation Xrotation 
	JOINT LHipJoint
	{
		OFFSET 0.000000 0.000000 0.000000
		CHANNELS 3 Zrotation Yrotation Xrotation
		JOINT LeftUpLeg
		{
			OFFSET 1.800000 -1.400000 0.085000
			CHANNELS 3 Zrotation Yrotation Xrotation
			JOINT LeftLeg
			{
				OFFSET 2.215000 -6.000000 0.000000
				CHANNELS 3 Zrotation Yrotation Xrotation
				JOINT LeftFoot
				{
					OFFSET 2.500000 -6.900000 0.000000
					CHANNELS 3 Zrotation Yrotation Xrotation
					JOINT LeftToeBase
					{
						OFFSET 0.200000 -0.500000 1.950000
						CHANNELS 3 Zrotation Yrotation Xrotation
						End Site
						{
							OFFSET 0.000000 0.000000 0.000000
						}
					}
				}
			}
		}
	}
	JOINT RHipJoint
	{
		OFFSET 0.000000 0.000000 0.000000
		CHANNELS 3 Zrotation Yrotation Xrotation
		JOINT RightUpLeg
		{
			OFFSET -1.800000 -1.400000 0.085000
			CHANNELS 3 Zrotation Yrotation Xrotation
			JOINT RightLeg
			{
				OFFSET -2.215000 -6.000000 0.000000
				CHANNELS 3 Zrotation Yrotation Xrotation
				JOINT RightFoot
				{
					OFFSET -2.500000 -6.900000 0.000000
					CHANNELS 3 Zrotation Yrotation Xrotation
					JOINT RightToeBase
					{
						OFFSET -0.200000 -0.500000 1.950000
						CHANNELS 3 Zrotation Yrotation Xrotation
						End Site
						{
							OFFSET 0.000000 0.000000 0.000000
						}
					}
				}
			}
		}
	}
	JOINT LowerBack
	{
		OFFSET 0.000000 0.000000 0.000000
		CHANNELS 3 Zrotation Yrotation Xrotation
		JOINT Spine
		{
			OFFSET -0.087000 1.940000 -0.288900
			CHANNELS 3 Zrotation Yrotation Xrotation
			JOINT Spine1
			{
				OFFSET 0.000000 1.950000 0.060000
				CHANNELS 3 Zrotation Yrotation Xrotation
				JOINT Neck
				{
					OFFSET 0.000000 0.000000 0.000000
					CHANNELS 3 Zrotation Yrotation Xrotation
					JOINT Neck1
					{
						OFFSET 0.000000 1.600000 0.340000
						CHANNELS 3 Zrotation Yrotation Xrotation
						JOINT Head
						{
							OFFSET 0.000000 1.667000 -0.240000
							CHANNELS 3 Zrotation Yrotation Xrotation
							End Site
							{
								OFFSET 0.000000 0.000000 0.000000
							}
						}
					}
				}
				JOINT LeftShoulder
				{
					OFFSET 0.000000 0.000000 0.000000
					CHANNELS 3 Zrotation Yrotation Xrotation
					JOINT LeftArm
					{
						OFFSET 2.700000 1.550000 -0.730000
						CHANNELS 3 Zrotation Yrotation Xrotation
						JOINT LeftForeArm
						{
							OFFSET 5.450000 0.000000 0.000000
							CHANNELS 3 Zrotation Yrotation Xrotation
							JOINT LeftHand
							{
								OFFSET 3.450000 0.000000 0.000000
								CHANNELS 3 Zrotation Yrotation Xrotation
								JOINT LeftHandIndex1
								{
									OFFSET 0.750000 0.000000 0.000000
									CHANNELS 3 Zrotation Yrotation Xrotation
									End Site
									{
										OFFSET 0.000000 0.000000 0.000000
									}
								}
							}
						}
					}
				}
				JOINT RightShoulder
				{
					OFFSET 0.000000 0.000000 0.000000
					CHANNELS 3 Zrotation Yrotation Xrotation
					JOINT RightArm
					{
						OFFSET -2.700000 1.550000 -0.730000
						CHANNELS 3 Zrotation Yrotation Xrotation
						JOINT RightForeArm
						{
							OFFSET -5.450000 0.000000 0.000000
							CHANNELS 3 Zrotation Yrotation Xrotation
							JOINT RightHand
							{
								OFFSET -3.450000 0.000000 0.000000
								CHANNELS 3 Zrotation Yrotation Xrotation
								JOINT RightHandIndex1
								{
									OFFSET -0.750000 0.000000 0.000000
									CHANNELS 3 Zrotation Yrotation Xrotation
									End Site
									{
										OFFSET 0.000000 0.000000 0.000000
									}
								}
							}
						}
					}
				}
			}
		}
	}
}
MOTION
Frames: 12
Frame Time: 0.016667
-0.212350 16.079200 -0.227660 -0.548031 -12.902455 8.917504 -15.044702 12.676688 2.829299 2.707050 -2.914842 -18.442094 -10.326619 6.542612 15.894940 -1.393732 4.943208 3.080971 0.967150 0.413950 0.750580 18.571859 -10.241254 3.140732 0.091913 5.341735 -31.646009 3.093211 -3.576130 16.971456 0.021516 -2.501598 3.654195 0.728330 0.557940 0.296300 -4.175333 -1.303130 -6.621845 14.842136 -2.383190 3.457148 -6.848877 -0.964385 10.739079 0.746207 -6.267143 -6.800567 -10.282746 8.628036 16.673140 -7.171440 5.767960 -11.297770 -16.151994 2.965115 1.411167 -33.750973 1.628681 3.233867 -130.305005 -49.771133 78.592256 -4.184359 3.700418 0.586950 0.554450 -0.331440 0.412670 14.641080 -0.391297 3.607002 28.335085 -11.156264 -5.421635 71.585201 36.800741 18.036896 1.181707 -2.240430 -0.568010 0.593090 -0.073610 -0.553460 
-0.168620 15.994330 -0.257450 -0.162881 -13.623148 9.245398 -15.054330 12.644453 2.866418 2.387567 -3.088458 -19.071466 -10.616264 6.715716 16.594974 -1.364544 4.962812 3.054983 0.978590 0.430130 0.770170 18.570117 -10.097007 3.257507 0.115687 5.568992 -32.766744 3.585550 -3.211821 14.024434 0.039067 -2.154857 3.776070 0.717500 0.506960 0.267430 -4.170862 -1.433931 -6.742215 14.839664 -2.778775 4.599051 -6.919642 -1.147007 10.445379 0.742076 -6.651147 -7.153496 -10.995906 8.978351 16.394920 -6.877170 5.807870 -12.813120 -16.955779 1.977808 1.657611 -31.587067 2.393155 2.672884 -130.012019 -49.032021 76.897977 -4.122274 3.665034 0.633720 0.491550 -0.287010 0.407620 15.466319 0.843255 4.055068 26.997342 -11.723477 -5.711708 73.630583 38.630103 19.826820 1.220262 -2.208537 -0.563070 0.605740 -0.090730 -0.557510 
-0.131660 15.905310 -0.286800 0.131152 -14.007470 8.946993 -15.048995 12.650951 2.928932 2.505328 -3.269950 -19.410032 -11.317752 7.137301 17.729148 -1.291191 5.119808 2.972286 0.952170 0.385120 0.770370 18.568173 -9.991088 3.349930 -0.019057 5.717471 -33.645724 3.860277 -3.048422 12.448344 0.036423 -1.939358 3.844085 0.653450 0.446430 0.255080 -4.177058 -1.596906 -6.906153 15.048435 -3.418186 6.617070 -7.387755 -1.435385 9.757855 0.920044 -7.081327 -7.542044 -11.855370 9.197431 16.563877 -6.730640 5.951900 -14.364190 -18.025399 0.900329 1.727320 -28.866972 2.994333 1.807627 -128.426365 -48.951388 74.478063 -4.053168 3.632906 0.700250 0.415460 -0.240160 0.384370 16.155158 2.105258 4.687103 26.348715 -12.452671 -6.241718 76.060062 40.427373 21.854642 1.278240 -2.163455 -0.551390 0.585110 -0.084170 -0.566850 
-0.084230 15.827900 -0.324520 0.273929 -14.073891 7.807889 -15.025064 12.726992 3.033269 2.926807 -3.521768 -19.540466 -12.063577 7.833120 19.859410 -1.169142 5.429656 2.826873 0.894770 0.287470 0.774010 18.560541 -9.945902 3.426694 -0.306335 5.830285 -34.598335 3.703674 -3.197169 13.504479 0.008701 -1.856958 3.858311 0.540920 0.354220 0.238710 -4.179202 -1.806284 -7.138828 15.527199 -4.446337 10.196835 -8.059304 -1.868776 8.536817 1.379693 -7.535430 -8.084180 -12.817288 8.931953 17.339246 -7.019240 6.027970 -16.488890 -19.229808 -0.347214 1.731840 -26.403750 3.587979 0.517897 -124.992476 -48.926888 69.913403 -3.950290 3.583805 0.798410 0.306820 -0.176330 0.340730 16.405791 3.539216 5.513451 26.180030 -13.242539 -7.110128 78.924512 42.091933 24.048252 1.368741 -2.086421 -0.539750 0.545540 -0.069160 -0.589450 
-0.035960 15.761180 -0.366690 0.170285 -14.077646 5.535465 -14.979954 12.842766 3.157479 3.907299 -3.723460 -18.821115 -13.234666 8.868725 22.450961 -0.995401 5.926686 2.611376 0.852120 0.207950 0.791530 18.553473 -9.969270 3.490618 -0.619887 6.010958 -35.482893 3.095941 -3.705037 17.825104 -0.075644 -2.032088 3.773236 0.426930 0.235950 0.218120 -4.190604 -1.984558 -7.416884 16.260723 -5.867347 15.700243 -9.177096 -2.356077 6.561989 2.012996 -7.993123 -8.589477 -13.914260 8.719300 18.855584 -7.198450 6.032570 -19.684640 -21.421938 -2.112871 1.464383 -23.215628 3.567312 -0.859145 -120.355484 -48.197343 63.584213 -3.805024 3.531473 0.916160 0.169910 -0.088270 0.296440 17.281859 5.417508 6.493687 26.262367 -14.035277 -8.264079 81.486432 44.094838 26.404997 1.483987 -1.986786 -0.517020 0.506390 -0.065830 -0.611620 
0.011750 15.691810 -0.394110 0.256011 -13.890764 3.195629 -14.969870 12.922748 3.235748 4.367910 -3.946299 -17.981487 -13.928594 9.862942 25.223486 -0.812367 6.445175 2.418223 0.794860 0.143820 0.771090 18.538899 -9.930504 3.588343 -1.313789 6.416759 -37.304530 1.791371 -4.434450 24.971414 -0.194133 -2.690112 3.536436 0.340910 0.181510 0.200810 -4.150482 -2.179664 -7.632747 16.562748 -7.203609 20.697208 -9.788348 -2.921917 4.490991 2.510395 -8.261435 -8.994837 -14.697895 8.702679 20.188123 -7.890740 6.150380 -21.055650 -23.558970 -3.732397 1.390381 -20.682261 3.973667 -2.062124 -115.269156 -47.560547 57.507877 -3.723742 3.487480 0.960000 0.106240 -0.046130 0.271270 18.464457 7.116210 7.234468 25.996962 -14.485352 -9.053791 82.905031 45.884886 28.257712 1.571336 -1.916350 -0.499130 0.484020 -0.057720 -0.610440 
0.048200 15.618170 -0.417040 0.501730 -13.530875 1.051280 -14.997355 12.895043 3.283514 4.761808 -4.294222 -17.408920 -14.777441 11.009319 28.131909 -0.624084 7.059014 2.196815 0.760950 0.117730 0.754990 18.528588 -9.761837 3.743621 -2.613982 7.046952 -39.737904 0.606372 -5.439154 33.664026 -0.399802 -3.884108 3.110135 0.293470 0.155520 0.198310 -4.091523 -2.396058 -7.843012 16.377683 -8.252108 24.824370 -9.898101 -3.548398 2.634522 2.742539 -8.349049 -9.075058 -15.180173 8.954857 21.487407 -8.458670 6.246740 -21.739310 -25.357963 -4.893888 1.205051 -18.924370 4.108471 -2.995439 -108.580561 -47.015560 50.934222 -3.673688 3.445326 0.973690 0.076500 -0.013030 0.260090 19.838495 8.219324 7.557561 25.816229 -14.268991 -9.499727 83.551792 47.994527 30.230603 1.637007 -1.862525 -0.478100 0.476870 -0.053720 -0.598120 
0.075950 15.547230 -0.432370 0.803632 -13.328135 -0.674387 -15.037071 12.776928 3.295685 4.895276 -4.685560 -17.245067 -15.321874 12.207832 31.302107 -0.444506 7.713671 1.973395 0.730990 0.080930 0.735460 18.536631 -9.508968 3.960565 -4.172061 7.870674 -42.343484 -0.491101 -6.549229 42.602764 -0.661308 -5.388596 2.598097 0.255880 0.153660 0.193130 -4.064460 -2.569243 -8.057177 16.212800 -8.941945 27.793331 -10.026522 -4.046475 0.916424 2.870731 -8.448119 -9.108206 -15.707573 9.392604 22.744830 -8.582990 6.220590 -21.186880 -26.766123 -5.685116 1.093116 -18.454287 4.447488 -3.808665 -100.406438 -46.385225 43.933875 -3.635709 3.408315 0.976150 0.065540 -0.011390 0.255530 21.009806 9.021592 7.692700 26.791379 -13.423987 -9.886539 83.309833 50.129544 31.876309 1.690442 -1.820594 -0.472230 0.470510 -0.046160 -0.589830 
0.098400 15.497550 -0.441040 0.875751 -13.363981 -2.572663 -15.077441 12.694260 3.280846 5.128195 -4.911226 -16.857976 -15.441340 13.406227 34.564511 -0.267234 8.383067 1.751524 0.688220 0.027990 0.723920 18.539152 -9.268752 4.157068 -5.513168 8.774024 -43.967067 -1.479278 -7.624254 51.004674 -0.957307 -6.897105 2.114479 0.212590 0.150360 0.174570 -4.028034 -2.758158 -8.255531 16.217520 -9.459315 30.696556 -10.048512 -4.415109 -0.781619 3.059779 -8.578400 -9.056946 -16.410359 9.881833 24.493197 -8.976830 6.212300 -20.833480 -28.464392 -6.259095 0.992698 -19.101498 5.082142 -4.743854 -90.835586 -45.868351 36.953147 -3.596028 3.333625 0.987270 0.050110 -0.010180 0.238310 22.305063 9.705530 7.661883 27.851191 -12.109689 -10.229016 82.426862 52.015683 33.040289 1.749153 -1.749974 -0.480380 0.480720 -0.030250 -0.589910 
0.112640 15.458190 -0.432630 0.709541 -13.035570 -4.394711 -15.109753 12.655741 3.260817 5.504082 -5.078472 -16.548172 -14.923166 14.501454 38.182631 -0.076940 9.035806 1.518774 0.680160 0.007600 0.736880 18.537227 -9.090325 4.278368 -6.811261 9.488575 -44.557734 -2.008031 -8.894822 58.489833 -1.277901 -8.305799 1.667584 0.178420 0.108260 0.183460 -3.993505 -2.936959 -8.415011 16.575950 -9.834960 32.499914 -10.039417 -4.724446 -2.024482 3.320471 -8.434728 -8.824441 -16.713160 10.324131 27.052861 -9.593960 6.445050 -20.302540 -30.122977 -6.574540 0.760639 -20.593200 5.214770 -5.552134 -79.749439 -44.335321 29.332367 -3.530717 3.309181 0.991680 0.023790 0.011130 0.221600 23.335723 9.912362 7.416499 29.808120 -10.416307 -10.611295 80.375861 53.918067 33.510102 1.809820 -1.712976 -0.452170 0.440540 -0.034470 -0.593470 
0.113890 15.426010 -0.417020 0.447834 -12.763088 -5.593348 -15.132678 12.578216 3.277224 6.264739 -5.159706 -16.752477 -14.888829 15.755720 41.244950 0.087886 9.704399 1.284864 0.660310 -0.027080 0.740010 18.541119 -8.943767 4.360115 -7.723201 10.230901 -44.698132 -2.547462 -9.952542 64.586800 -1.545556 -9.453530 1.322198 0.152050 0.092850 0.192880 -3.982115 -3.009432 -8.553193 17.138070 -9.814274 32.827046 -10.115135 -4.711349 -2.808430 3.573793 -7.954955 -8.319204 -16.138903 10.466459 29.500112 -10.038100 6.709500 -19.152210 -32.116892 -6.439255 0.452928 -22.494916 5.582489 -6.246499 -69.124687 -43.299916 23.398084 -3.496744 3.287631 0.987030 0.023740 0.008850 0.201240 24.629947 9.491629 6.923948 31.624954 -8.781084 -10.684400 78.709842 55.154682 33.706848 1.844573 -1.691047 -0.442880 0.408900 -0.023540 -0.602640 
0.099830 15.393570 -0.388990 0.433511 -12.393063 -6.276485 -15.153160 12.480452 3.339005 7.116934 -5.175959 -17.404090 -15.209430 17.165902 43.890168 0.250246 10.355204 1.066289 0.636480 -0.053880 0.728400 18.541074 -8.842589 4.382422 -8.696102 10.783100 -44.359241 -2.780177 -11.010788 69.416433 -1.760807 -10.380257 1.066170 0.135430 0.094110 0.191590 -3.966934 -3.012211 -8.678031 17.288184 -9.205423 31.860441 -9.967474 -4.394861 -3.120433 3.749204 -7.201583 -7.628356 -14.842123 10.225134 31.750975 -10.241750 6.921430 -17.702220 -33.819606 -5.703629 0.043033 -24.872875 5.887291 -6.853198 -59.054699 -42.546644 18.646788 -3.483618 3.261276 0.969190 0.038340 -0.006710 0.188950 25.785141 8.372396 6.248726 34.132743 -7.358221 -10.698899 77.358668 56.543417 34.098532 1.871299 -1.670476 -0.441760 0.389310 -0.013730 -0.606720 
